#!OML:ASF C:\ViconDB\ViconDB\414\Spring2016\042216\male.ASF
:FULLY-SPECIFIED
:DEGREES
679
root 46.7006 17.6059 12.5822 186.694 81.1826 184.774
lowerback -4.39657 -1.1964 3.76916
upperback -0.896471 -1.74412 -0.539328
thorax 1.41209 -0.851204 -2.76356
lowerneck -1.12851 13.5307 0.747814
upperneck 1.7782 18.8827 -12.8141
head 2.24027 9.39356 -3.69151
rclavicle 2.41601e-014 -8.22472e-015
rhumerus -32.3086 -8.83703 -89.6073
rradius 28.7812
rwrist 37.0932
rhand 14.7807 -17.8907
rfingers 7.12502
rthumb 39.6452 -43.2228
lclavicle 2.41601e-014 -8.22472e-015
lhumerus -33.9474 6.24421 92.0687
lradius 36.3544
lwrist -11.1328
lhand -5.90133 12.2895
lfingers 7.12502
lthumb 19.9272 41.2878
rfemur -6.76395 9.82134 23.9684
rtibia 26.7757
rfoot -22.6795 -15.513
rtoes -0.865293
lfemur -9.12914 -2.97666 -20.6749
ltibia 31.3649
lfoot -28.1699 11.4465
ltoes -12.5042
680
root 46.6887 17.6073 12.5808 186.467 81.2101 184.533
lowerback -4.45405 -1.19919 3.72414
upperback -0.901776 -1.74721 -0.573618
thorax 1.43883 -0.852336 -2.77526
lowerneck -1.18296 13.3577 0.749752
upperneck 1.97464 18.6803 -12.847
head 2.3049 9.28325 -3.70387
rclavicle 1.38606e-014 -6.01324e-015
rhumerus -32.1742 -9.05726 -89.5373
rradius 28.886
rwrist 37.403
rhand 14.4504 -17.3702
rfingers 7.12502
rthumb 39.3341 -42.7937
lclavicle 1.38606e-014 -6.01324e-015
lhumerus -34.0116 6.20493 92.0819
lradius 36.3863
lwrist -11.092
lhand -5.73203 12.8959
lfingers 7.12502
lthumb 20.0899 41.8772
rfemur -6.86372 9.70566 23.8824
rtibia 26.827
rfoot -22.6516 -15.3699
rtoes -0.863042
lfemur -9.16321 -2.98604 -20.7349
ltibia 31.3271
lfoot -28.1023 11.4723
ltoes -12.5509
681
root 46.678 17.6082 12.5836 185.914 81.2425 183.923
lowerback -4.53455 -1.21148 3.50579
upperback -0.941082 -1.75533 -0.552602
thorax 1.45014 -0.857195 -2.63298
lowerneck -1.20869 13.1844 0.654666
upperneck 2.19505 18.484 -12.8694
head 2.36158 9.17643 -3.69929
rclavicle -4.34841e-016 -2.33572e-015
rhumerus -32.0546 -9.09147 -89.4892
rradius 29.1654
rwrist 36.4241
rhand 14.4663 -17.8469
rfingers 7.12502
rthumb 39.349 -43.2661
lclavicle -4.34841e-016 -2.33572e-015
lhumerus -34.0948 6.12021 92.1648
lradius 36.3283
lwrist -10.8289
lhand -5.88988 12.8085
lfingers 7.12502
lthumb 19.9382 41.8057
rfemur -6.98221 9.89976 23.7747
rtibia 26.8885
rfoot -22.7519 -15.4971
rtoes -0.892867
lfemur -9.24071 -2.95505 -20.829
ltibia 31.2815
lfoot -27.9968 11.4166
ltoes -12.6881
682
root 46.6684 17.6093 12.5869 185.115 81.2773 183.089
lowerback -4.60693 -1.23065 3.28205
upperback -0.947062 -1.77245 -0.55226
thorax 1.49018 -0.865761 -2.50985
lowerneck -1.30114 13.0467 0.586138
upperneck 2.40403 18.3389 -12.9245
head 2.43716 9.09257 -3.7019
rclavicle -2.28043e-014 4.14963e-015
rhumerus -31.8978 -9.10404 -89.4801
rradius 29.3729
rwrist 35.9582
rhand 14.0275 -18.1523
rfingers 7.12502
rthumb 38.9354 -43.6907
lclavicle -2.28043e-014 4.14963e-015
lhumerus -34.094 6.41525 92.0253
lradius 36.1133
lwrist -11.2303
lhand -5.51644 12.7049
lfingers 7.12502
lthumb 20.2971 41.6644
rfemur -7.09348 10.0371 23.6352
rtibia 26.9856
rfoot -22.7397 -15.5931
rtoes -0.990988
lfemur -9.28663 -2.92722 -20.9704
ltibia 31.2044
lfoot -27.8888 11.4223
ltoes -12.6397
683
root 46.6577 17.6111 12.587 184.956 81.2797 182.979
lowerback -4.60998 -1.2566 3.18398
upperback -0.929827 -1.80345 -0.520905
thorax 1.51165 -0.881108 -2.42459
lowerneck -1.36324 12.9494 0.543305
upperneck 2.57397 18.2394 -12.9598
head 2.49808 9.03396 -3.70304
rclavicle 4.21719e-014 -1.93815e-015
rhumerus -31.7554 -9.21585 -89.4364
rradius 29.5751
rwrist 35.7549
rhand 13.3079 -18.2769
rfingers 7.12502
rthumb 38.2566 -44.0058
lclavicle 4.21719e-014 -1.93815e-015
lhumerus -34.1496 6.83129 91.8897
lradius 35.9581
lwrist -11.4979
lhand -5.21218 12.3925
lfingers 7.12502
lthumb 20.5895 41.3206
rfemur -7.1053 10.1139 23.6169
rtibia 27.0308
rfoot -22.6986 -15.6659
rtoes -0.7896
lfemur -9.25603 -2.91694 -20.9969
ltibia 31.1626
lfoot -27.8333 11.4109
ltoes -12.6654
684
root 46.6443 17.6079 12.5863 185.121 81.2637 183.199
lowerback -4.5632 -1.2633 3.18247
upperback -0.928282 -1.81113 -0.507769
thorax 1.48707 -0.885455 -2.40935
lowerneck -1.40902 12.8547 0.535582
upperneck 2.74787 18.1382 -12.9596
head 2.55677 8.97498 -3.69936
rclavicle -5.19092e-015 -4.96962e-016
rhumerus -31.656 -9.44202 -89.3657
rradius 29.6943
rwrist 36.4122
rhand 12.5826 -18.1442
rfingers 7.12502
rthumb 37.5715 -44.0587
lclavicle -5.19092e-015 -4.96962e-016
lhumerus -34.2474 6.81572 91.8937
lradius 35.8039
lwrist -11.2677
lhand -5.31438 12.1383
lfingers 7.12502
lthumb 20.4913 41.0769
rfemur -7.12194 10.1345 23.6563
rtibia 27.0636
rfoot -22.6576 -15.79
rtoes -1.03619
lfemur -9.20988 -2.92611 -20.9648
ltibia 31.127
lfoot -27.8385 11.4037
ltoes -12.4168
685
root 46.6324 17.6136 12.5833 185.164 81.2627 183.295
lowerback -4.53832 -1.2882 3.19212
upperback -0.907194 -1.84465 -0.506111
thorax 1.49244 -0.901954 -2.4145
lowerneck -1.51765 12.7876 0.532429
upperneck 2.95436 18.0818 -12.9675
head 2.64286 8.93405 -3.69085
rclavicle -1.44041e-014 -4.47266e-016
rhumerus -31.467 -9.43734 -89.413
rradius 29.9901
rwrist 35.7463
rhand 12.4726 -18.6976
rfingers 7.12502
rthumb 37.4676 -44.6397
lclavicle -1.44041e-014 -4.47266e-016
lhumerus -34.3006 7.13096 91.7834
lradius 35.7861
lwrist -11.3442
lhand -4.81655 13.2504
lfingers 7.12502
lthumb 20.9697 42.1369
rfemur -7.10658 10.0581 23.6494
rtibia 27.0588
rfoot -22.6079 -15.7437
rtoes -0.956615
lfemur -9.22377 -2.85631 -20.9634
ltibia 31.1211
lfoot -27.8477 11.3109
ltoes -12.428
686
root 46.6206 17.6167 12.58 185.161 81.3318 183.314
lowerback -4.54281 -1.29196 3.23101
upperback -0.909432 -1.85109 -0.535723
thorax 1.48998 -0.905071 -2.46722
lowerneck -1.56852 12.7158 0.549572
upperneck 3.14015 18.0127 -12.9685
head 2.71209 8.89004 -3.68925
rclavicle 2.44443e-015 6.21202e-016
rhumerus -31.3438 -9.3079 -89.5281
rradius 30.1698
rwrist 35.4436
rhand 11.7126 -18.8182
rfingers 7.12502
rthumb 36.7488 -44.9472
lclavicle 2.44443e-015 6.21202e-016
lhumerus -34.3631 7.35952 91.6048
lradius 35.4591
lwrist -11.2976
lhand -4.77566 13.3926
lfingers 7.12502
lthumb 21.0089 42.2747
rfemur -7.13892 9.96627 23.6044
rtibia 27.0522
rfoot -22.588 -15.5873
rtoes -1.021
lfemur -9.23447 -2.84127 -20.9895
ltibia 31.1196
lfoot -27.7929 11.3648
ltoes -12.5035
687
root 46.6069 17.6173 12.5759 185.08 81.3985 183.218
lowerback -4.57406 -1.29964 3.24813
upperback -0.924662 -1.86217 -0.565454
thorax 1.48949 -0.910606 -2.50866
lowerneck -1.65687 12.6585 0.589218
upperneck 3.38021 17.9696 -12.9525
head 2.80917 8.85536 -3.67985
rclavicle -1.82897e-014 8.82107e-015
rhumerus -31.294 -9.17322 -89.6599
rradius 30.4267
rwrist 35.2875
rhand 11.318 -19.0329
rfingers 7.12502
rthumb 36.3753 -45.2563
lclavicle -1.82897e-014 8.82107e-015
lhumerus -34.4972 7.51082 91.4471
lradius 35.2554
lwrist -11.2602
lhand -4.29091 13.2477
lfingers 7.12502
lthumb 21.4746 42.0774
rfemur -7.2127 9.82832 23.5255
rtibia 27.047
rfoot -22.5001 -15.3767
rtoes -1.07712
lfemur -9.29047 -2.80341 -21.0333
ltibia 31.1221
lfoot -27.7118 11.3922
ltoes -12.7291
688
root 46.5934 17.6177 12.5726 185.281 81.4533 183.437
lowerback -4.56117 -1.30801 3.2726
upperback -0.934183 -1.87395 -0.557593
thorax 1.47116 -0.916828 -2.51437
lowerneck -1.6843 12.5974 0.631385
upperneck 3.54852 17.9186 -13.0108
head 2.87969 8.82212 -3.70283
rclavicle 8.09271e-015 -3.95085e-015
rhumerus -31.225 -9.17848 -89.6851
rradius 30.6499
rwrist 35.4098
rhand 11.3544 -18.9442
rfingers 7.12502
rthumb 36.4098 -45.159
lclavicle 8.09271e-015 -3.95085e-015
lhumerus -34.6423 7.60449 91.382
lradius 35.1582
lwrist -11.1257
lhand -4.12156 13.8931
lfingers 7.12502
lthumb 21.6372 42.7041
rfemur -7.25474 9.67763 23.5118
rtibia 27.0426
rfoot -22.4331 -15.1634
rtoes -1.06155
lfemur -9.30948 -2.77251 -21.023
ltibia 31.121
lfoot -27.5866 11.4119
ltoes -12.3927
689
root 46.5795 17.612 12.5709 185.387 81.5021 183.602
lowerback -4.55122 -1.30897 3.27994
upperback -0.900479 -1.87643 -0.547634
thorax 1.50022 -0.917268 -2.50869
lowerneck -1.77938 12.5441 0.573676
upperneck 3.72612 17.872 -12.9619
head 2.94234 8.78768 -3.66878
rclavicle -2.21474e-014 -5.01931e-015
rhumerus -31.1287 -9.14842 -89.7278
rradius 30.8407
rwrist 35.7013
rhand 11.1576 -18.9395
rfingers 7.12502
rthumb 36.2235 -45.2008
lclavicle -2.21474e-014 -5.01931e-015
lhumerus -34.6868 8.05553 91.1939
lradius 34.8364
lwrist -11.1185
lhand -5.96323 15.397
lfingers 7.12502
lthumb 19.8677 44.4015
rfemur -7.24234 9.77096 23.5321
rtibia 27.0416
rfoot -22.4106 -15.2298
rtoes -0.914502
lfemur -9.25944 -2.82193 -21.0135
ltibia 31.1256
lfoot -27.6284 11.4669
ltoes -12.2192
690
root 46.567 17.6178 12.5684 185.313 81.5403 183.556
lowerback -4.53856 -1.31564 3.29107
upperback -0.872756 -1.88618 -0.552897
thorax 1.52047 -0.921529 -2.521
lowerneck -1.94796 12.4727 0.755093
upperneck 4.07865 17.8488 -13.4268
head 2.84209 8.72479 -3.41862
rclavicle 2.24627e-014 3.23025e-015
rhumerus -31.0044 -9.16694 -89.7697
rradius 30.9959
rwrist 36.0065
rhand 10.9723 -18.8309
rfingers 7.12502
rthumb 36.0479 -45.1356
lclavicle 2.24627e-014 3.23025e-015
lhumerus -34.6995 8.39073 90.9781
lradius 34.4375
lwrist -11.5936
lhand -6.10549 15.6814
lfingers 7.12502
lthumb 19.7309 44.7
rfemur -7.25531 9.68934 23.4853
rtibia 27.0172
rfoot -22.3416 -15.1256
rtoes -0.937753
lfemur -9.31472 -2.72289 -21.0421
ltibia 31.1523
lfoot -27.6524 11.446
ltoes -12.2889
691
root 46.5536 17.6171 12.57 185.396 81.6072 183.694
lowerback -4.49116 -1.33676 3.22594
upperback -0.864539 -1.9103 -0.535807
thorax 1.50356 -0.934185 -2.46689
lowerneck -2.003 12.4543 0.776129
upperneck 4.24685 17.8482 -13.4122
head 2.90194 8.71456 -3.40743
rclavicle 7.11587e-015 -6.83322e-015
rhumerus -30.9608 -8.67332 -89.995
rradius 31.2111
rwrist 35.4538
rhand 10.7494 -18.9574
rfingers 7.12502
rthumb 35.8368 -45.3139
lclavicle 7.11587e-015 -6.83322e-015
lhumerus -34.8847 8.20659 90.999
lradius 34.4598
lwrist -11.1458
lhand -5.18535 15.9643
lfingers 7.12502
lthumb 20.6153 44.8895
rfemur -7.23784 9.8108 23.5172
rtibia 27.0029
rfoot -22.3011 -15.2344
rtoes -0.910033
lfemur -9.32294 -2.6352 -21.0208
ltibia 31.1693
lfoot -27.6864 11.3999
ltoes -12.3664
692
root 46.539 17.6166 12.57 185.56 81.6669 183.903
lowerback -4.46977 -1.33469 3.21335
upperback -0.849228 -1.90694 -0.52274
thorax 1.50845 -0.932399 -2.44585
lowerneck -2.06131 12.41 0.758756
upperneck 4.40106 17.809 -13.3724
head 2.94967 8.68593 -3.38685
rclavicle -1.03415e-014 1.49089e-015
rhumerus -30.9248 -8.4622 -90.136
rradius 31.3778
rwrist 35.0897
rhand 10.6421 -19.1253
rfingers 7.12502
rthumb 35.7351 -45.5065
lclavicle -1.03415e-014 1.49089e-015
lhumerus -34.9749 8.74756 90.684
lradius 34.0287
lwrist -11.6847
lhand -4.35058 15.2433
lfingers 7.12502
lthumb 21.4173 44.0795
rfemur -7.22093 9.92692 23.5503
rtibia 26.9573
rfoot -22.2437 -15.2933
rtoes -0.985474
lfemur -9.34166 -2.62678 -20.9975
ltibia 31.2035
lfoot -27.5994 11.4005
ltoes -12.1287
